<?xml version="1.0" standalone="no"?>
<!DOCTYPE svg PUBLIC "-//W3C//DTD SVG 20010904//EN"
 "http://www.w3.org/TR/2001/REC-SVG-20010904/DTD/svg10.dtd">
<svg version="1.0" xmlns="http://www.w3.org/2000/svg"
 width="260.000000pt" height="260.000000pt" viewBox="0 0 260.000000 260.000000"
 preserveAspectRatio="xMidYMid meet">
<metadata>
Created by potrace 1.11, written by Peter Selinger 2001-2013
</metadata>
<g transform="translate(0.000000,260.000000) scale(0.100000,-0.100000)"
fill="#000000" stroke="none">
<path d="M1394 2372 c-77 -21 -142 -64 -159 -105 -18 -45 -26 -50 -41 -28 -62
87 -278 86 -372 -2 -13 -12 -33 -39 -43 -59 l-19 -37 -43 30 c-41 29 -49 30
-135 30 -100 0 -120 -7 -179 -71 -21 -23 -36 -52 -42 -85 -13 -64 -8 -679 6
-720 l10 -30 7 30 c4 17 16 45 26 63 18 30 24 33 60 29 22 -2 43 -6 47 -10 3
-4 17 -7 30 -7 14 0 23 -6 23 -15 0 -18 14 -19 41 -5 15 9 21 7 25 -5 4 -9 14
-15 23 -14 25 3 66 -17 87 -43 27 -33 126 -105 177 -128 45 -21 61 -30 122
-71 105 -70 144 -83 255 -87 160 -5 200 -4 213 6 7 5 33 15 59 22 26 7 54 20
63 30 23 26 44 88 45 133 0 24 7 43 20 54 11 10 20 25 20 35 0 34 -109 214
-138 228 -26 12 -216 21 -434 20 l-86 0 -31 42 c-39 52 -40 86 -3 120 l27 25
285 -2 c174 -1 307 -7 342 -14 80 -17 185 -65 304 -138 110 -68 127 -91 139
-183 13 -96 -33 -301 -100 -444 -85 -183 -163 -274 -284 -334 -69 -34 -82 -37
-162 -37 -69 0 -91 4 -106 18 -11 9 -22 15 -25 12 -5 -5 -51 14 -111 46 -13 7
-23 6 -32 -1 -8 -7 -23 -9 -34 -5 -11 3 -23 0 -28 -7 -17 -28 -96 -41 -249
-41 -84 -1 -163 4 -180 10 -16 6 -48 16 -71 23 -24 7 -43 17 -43 22 0 4 -6 8
-14 8 -18 0 -134 85 -163 119 -13 14 -27 31 -33 38 -5 7 -22 29 -36 50 l-27
38 7 -45 c4 -24 11 -49 16 -55 4 -5 11 -27 15 -49 13 -67 85 -188 158 -265 38
-41 146 -130 192 -159 112 -71 365 -110 645 -99 205 8 315 51 440 176 60 59
160 181 160 195 0 3 13 24 29 48 15 24 45 79 65 123 21 44 41 87 45 96 5 8 19
55 32 105 20 75 24 113 24 239 0 134 -2 155 -23 203 -23 53 -45 84 -90 127
-23 22 -23 22 -5 61 16 35 18 65 16 297 -3 253 -3 258 -28 312 -27 57 -59 83
-130 105 -91 29 -230 -7 -287 -74 -17 -20 -19 -20 -29 -3 -26 44 -60 70 -128
97 -83 34 -76 34 -157 12z m155 -62 c27 -13 43 -31 54 -57 20 -50 49 -247 45
-302 -3 -44 -3 -45 -58 -64 -68 -24 -195 -20 -252 7 -34 16 -37 22 -44 72 -10
87 0 300 17 320 38 46 169 60 238 24z m446 -26 c19 -9 40 -25 48 -37 20 -31
36 -126 44 -253 l6 -109 -49 -18 c-105 -37 -282 -12 -299 43 -4 12 -4 79 0
148 9 150 26 200 76 225 43 21 131 22 174 1z m-873 -55 c13 -17 26 -68 39
-160 25 -162 25 -174 8 -196 -39 -46 -156 -66 -254 -43 -63 14 -67 26 -62 185
6 195 26 235 128 253 57 11 117 -6 141 -39z m-501 -49 c58 -16 87 -56 104
-141 8 -41 19 -90 25 -109 20 -68 16 -75 -57 -111 -59 -28 -78 -32 -143 -31
-47 0 -86 6 -105 16 -16 9 -38 16 -47 16 -27 0 -31 34 -18 148 14 132 21 151
65 181 55 37 115 48 176 31z"/>
</g>
</svg>
